<svg xmlns="http://www.w3.org/2000/svg" id="ic_autoscaling" width="32" height="32" viewBox="0 0 32 32">
    <defs>
        <style>
            .cls-3{fill:#323232}
        </style>
    </defs>
    <g id="Group_75" transform="translate(-312 -100)">
        <path id="Rectangle_135" fill="#c7e9f4" d="M0 0H14V18H0z" transform="translate(322 108)"/>
        <g id="Group_74">
            <path id="Path_27" d="M319 127h18v-22h-18zm1-21h16v20h-16z" class="cls-3"/>
            <path id="Rectangle_136" d="M0 0H1V22H0z" class="cls-3" transform="translate(316.5 105)"/>
            <path id="Rectangle_137" d="M0 0H1V22H0z" class="cls-3" transform="translate(314 105)"/>
            <path id="Rectangle_138" d="M0 0H1V22H0z" class="cls-3" transform="translate(341 105)"/>
            <path id="Rectangle_139" d="M0 0H1V22H0z" class="cls-3" transform="translate(338.5 105)"/>
            <path id="Path_28" d="M331.672 113.172l-.707.707 1.621 1.621h-9.172l1.621-1.621-.707-.707-2.121 2.121-.707.707.707.707 2.121 2.121.707-.707-1.621-1.621h9.172l-1.621 1.621.707.707 2.121-2.121.707-.707-.707-.707z" class="cls-3"/>
        </g>
    </g>
</svg>
