<svg xmlns="http://www.w3.org/2000/svg" width="32" height="32" viewBox="0 0 32 32">
    <g>
        <path fill="#c7e9f4" d="M337.266 711.621c0-.065.02-.127.02-.192a4.637 4.637 0 0 0-6.494-4.255 6.668 6.668 0 0 0-.629-.862 6.4 6.4 0 0 0-1.949-.312 6.5 6.5 0 0 0-6.5 6.5c0 .107.011.212.016.318a4.506 4.506 0 1 0-1.159 8.825h15.322a5.1 5.1 0 0 0 1.373-10.022z" transform="translate(-312 -700)"/>
        <path fill="#323232" d="M335.893 721.643a5.1 5.1 0 0 0 1.373-10.022c0-.065.02-.127.02-.192a4.637 4.637 0 0 0-6.494-4.255 6.5 6.5 0 0 0-12.078 3.326c0 .107.011.212.016.318a5.569 5.569 0 0 0 1.841 10.825h6.929v2.407a2.5 2.5 0 0 0-1.95 1.95H319v1h6.55a2.5 2.5 0 0 0 4.9 0H337v-1h-6.55a2.5 2.5 0 0 0-1.95-1.95v-2.407zM329.5 726.5a1.5 1.5 0 1 1-1.5-1.5 1.5 1.5 0 0 1 1.5 1.5zM316 716.071a4.574 4.574 0 0 1 3.061-4.309l.7-.247-.036-.746-.008-.128c0-.047-.007-.093-.007-.141a5.5 5.5 0 0 1 10.219-2.813l.452.756.806-.352a3.61 3.61 0 0 1 1.452-.3 3.647 3.647 0 0 1 3.643 3.608c-.009.061-.016.122-.019.185l-.033.792.764.213a4.1 4.1 0 0 1-1.1 8.059h-15.323a4.577 4.577 0 0 1-4.571-4.577z" transform="translate(-312 -700)"/>
    </g>
</svg>
