<svg xmlns="http://www.w3.org/2000/svg" width="32" height="32" viewBox="0 0 32 32">
    <g data-name="그룹 6310">
        <path data-name="패스 39634" d="M471.484 694.251a3.23 3.23 0 0 0-1.253-.252h-.462a3.272 3.272 0 0 0-3.269 3.269v3.7" style="fill:none" transform="translate(-447.5 -675.999)"/>
        <path data-name="패스 39635" d="M469.769 693h.462a4.231 4.231 0 0 1 1.269.213v-9.706c-4.918-.166-7.772-1.532-8.966-2.267l-.034.027-.034-.026c-1.184.729-4.039 2.1-8.966 2.266v10.553c0 3.408 4.683 7.8 9 8.489a10.193 10.193 0 0 0 3-1.024v-4.256a4.269 4.269 0 0 1 4.269-4.269z" style="fill:none" transform="translate(-447.5 -675.999)"/>
        <path data-name="패스 39636" d="M469.769 693h.039v-7.984c-4.972 0-7.148-1.714-7.283-1.824a.235.235 0 0 1-.024-.021.235.235 0 0 1-.024.021c-.135.11-2.311 1.824-7.283 1.824v8.43c0 3.033 3.936 6.469 7.306 6.942a8.477 8.477 0 0 0 3-1.1v-2.017a4.269 4.269 0 0 1 4.269-4.271z" style="fill:#c7e9f4" transform="translate(-447.5 -675.999)"/>
        <g data-name="그룹 6308">
            <path data-name="패스 39637" d="M474.5 701v-3.731a4.347 4.347 0 0 0-4.269-4.269h-.462a4.269 4.269 0 0 0-4.269 4.269V701h-1v1h11v-1zm-1 0h-7v-3.731a3.273 3.273 0 0 1 3.264-3.269h.467a3.3 3.3 0 0 1 3.269 3.269z" style="fill:#323232" transform="translate(-447.5 -675.999)"/>
            <path data-name="패스 39638" d="M468.573 703a1.573 1.573 0 0 0-.073.453 1.5 1.5 0 1 0 3 0 1.573 1.573 0 0 0-.073-.453z" style="fill:#323232" transform="translate(-447.5 -675.999)"/>
        </g>
        <g data-name="그룹 6309">
            <path data-name="패스 39639" d="M460.2 689.7a1.647 1.647 0 0 0-.464-.107l-.939-.1a1.1 1.1 0 0 1-.258-.05.11.11 0 0 1-.073-.071.772.772 0 0 1-.022-.224.665.665 0 0 1 .022-.2.156.156 0 0 1 .092-.088 1.925 1.925 0 0 1 .685-.078 9.24 9.24 0 0 1 1.153.072l.055.006v-.738l-.04-.008a6.992 6.992 0 0 0-1.34-.111 3.819 3.819 0 0 0-.837.078.93.93 0 0 0-.539.349 1.267 1.267 0 0 0-.2.77 1.7 1.7 0 0 0 .084.572.769.769 0 0 0 .312.391 1.47 1.47 0 0 0 .628.2l.873.093a.752.752 0 0 1 .221.048.136.136 0 0 1 .07.083.824.824 0 0 1 .021.221.851.851 0 0 1-.019.209.19.19 0 0 1-.078.106.527.527 0 0 1-.232.077 3.245 3.245 0 0 1-.463.025c-.34 0-.747-.022-1.244-.066l-.054-.005v.755l.042.006a10.966 10.966 0 0 0 1.5.089 3.212 3.212 0 0 0 .8-.082.852.852 0 0 0 .506-.367 1.474 1.474 0 0 0 .187-.819 1.505 1.505 0 0 0-.15-.763.613.613 0 0 0-.299-.273z" style="fill:#313232" transform="translate(-447.5 -675.999)"/>
            <path data-name="패스 39640" d="M463.781 689.7a1.656 1.656 0 0 0-.464-.107l-.939-.1a1.119 1.119 0 0 1-.258-.05.111.111 0 0 1-.074-.072.732.732 0 0 1-.022-.223.605.605 0 0 1 .023-.2.157.157 0 0 1 .091-.088 1.936 1.936 0 0 1 .686-.078 9.251 9.251 0 0 1 1.153.072l.055.006v-.738l-.04-.008a6.993 6.993 0 0 0-1.34-.111 3.817 3.817 0 0 0-.838.078.927.927 0 0 0-.538.349 1.261 1.261 0 0 0-.2.77 1.733 1.733 0 0 0 .083.572.768.768 0 0 0 .313.391 1.47 1.47 0 0 0 .628.2l.873.093a.71.71 0 0 1 .219.048.136.136 0 0 1 .072.083.869.869 0 0 1 .021.221.9.9 0 0 1-.019.209.181.181 0 0 1-.08.106.509.509 0 0 1-.231.077 3.241 3.241 0 0 1-.464.025c-.338 0-.745-.022-1.242-.066l-.054-.005v.755l.042.006a10.95 10.95 0 0 0 1.5.089 3.207 3.207 0 0 0 .8-.082.854.854 0 0 0 .507-.367 1.457 1.457 0 0 0 .186-.819 1.512 1.512 0 0 0-.149-.763.618.618 0 0 0-.3-.273z" style="fill:#313232" transform="translate(-447.5 -675.999)"/>
            <path data-name="패스 39641" d="M465.772 691.142v-3.1h-.943v3.912h2.671v-.813z" style="fill:#313232" transform="translate(-447.5 -675.999)"/>
        </g>
        <path data-name="패스 39642" d="M462.535 680.026a.312.312 0 0 1-.035-.026.312.312 0 0 1-.034.027c-.184.151-3.161 2.5-9.965 2.5v11.536c0 4.15 5.386 8.852 10 9.5v-1.011c-4.317-.684-9-5.081-9-8.489v-10.557c4.927-.166 7.782-1.537 8.966-2.266l.034.026.034-.027c1.194.735 4.048 2.1 8.966 2.267v7.994h1v-8.976c-6.801-.001-9.782-2.347-9.966-2.498z" style="fill:#323232" transform="translate(-447.5 -675.999)"/>
    </g>
</svg>
