<svg xmlns="http://www.w3.org/2000/svg" width="32" height="32" viewBox="0 0 32 32">
    <g data-name="그룹 6056">
        <path data-name="패스 39318" d="M673 123.5a4.97 4.97 0 0 1 1.866.368v-11.396H653v16h15a5 5 0 0 1 5-4.972z" style="fill:#c7e9f4" transform="translate(-648 -105.499)"/>
        <path data-name="패스 39319" d="M650 109.5v19h12.183v3.451h-5.42v1H666v-1h-2.817V128.5H666v-1h-15v-17h23v11.15h1V109.5z" style="fill:#323232" transform="translate(-648 -105.499)"/>
        <g data-name="그룹 6055">
            <path data-name="패스 39320" d="M674.866 123.867a4.984 4.984 0 0 0-6.866 4.605v.027a5 5 0 1 0 6.866-4.632zM673 132.5a4 4 0 0 1-4-4v-.027a4 4 0 0 1 4-3.973 3.939 3.939 0 0 1 1.866.484A3.986 3.986 0 0 1 673 132.5z" style="fill:#323232" transform="translate(-648 -105.499)"/>
            <path data-name="패스 39321" d="M671.821 126.861v3.5l3-1.75-.238-.139z" style="fill:#323232" transform="translate(-648 -105.499)"/>
        </g>
        <path data-name="패스 39322" d="m669.883 117.385-7.769-3.33-7.769 3.33 2.769 1.187v4.169c0 .385 1.176 1.733 5 1.733s5-1.348 5-1.733v-4.169l1.772-.759v3.072h1v-3.5zm-3.769 5.138c-.313.314-1.467.951-4 .951s-3.687-.637-4-.951V119l4 1.715 4-1.714zm.9-5-.5.213-.576.247-3.831 1.642-3.831-1.642-.575-.247-.5-.213-.326-.14 5.23-2.242 5.231 2.242z" style="fill:#323232" transform="translate(-648 -105.499)"/>
    </g>
</svg>
