<svg xmlns="http://www.w3.org/2000/svg" id="ic_loadbalancer" width="32" height="32" viewBox="0 0 32 32">
    <defs>
        <style>
            .cls-3{fill:#323232}
        </style>
    </defs>
    <g id="Group_5728" transform="translate(-108 -699)">
        <path id="Rectangle_1408" fill="#c7e9f4" d="M0 0H13V13H0z" transform="translate(113 711)"/>
        <g id="Group_5727">
            <path id="Path_11329" d="M135.5 709a2.5 2.5 0 1 0-2.5-2.5 2.5 2.5 0 0 0 2.5 2.5zm0-4a1.5 1.5 0 1 1-1.5 1.5 1.5 1.5 0 0 1 1.5-1.5z" class="cls-3"/>
            <path id="Path_11330" d="M135.5 713.5a2.5 2.5 0 1 0 2.5 2.5 2.5 2.5 0 0 0-2.5-2.5zm0 4a1.5 1.5 0 1 1 1.5-1.5 1.5 1.5 0 0 1-1.5 1.5z" class="cls-3"/>
            <path id="Path_11331" d="M135.5 723a2.5 2.5 0 1 0 2.5 2.5 2.5 2.5 0 0 0-2.5-2.5zm0 4a1.5 1.5 0 1 1 1.5-1.5 1.5 1.5 0 0 1-1.5 1.5z" class="cls-3"/>
            <path id="Path_11332" d="M128.5 706v9.5H126V708h-16v16h16v-7.5h2.5v9.5h3v-1h-2v-8.5h2v-1h-2V707h2v-1h-3zm-3.5 17h-14v-14h14z" class="cls-3"/>
        </g>
    </g>
</svg>
