<svg xmlns="http://www.w3.org/2000/svg" id="ic_messaging" width="32" height="32" viewBox="0 0 32 32">
    <defs>
        <style>
            .cls-3{fill:#323232}
        </style>
    </defs>
    <g id="Group_5775" transform="translate(-380 -940)">
        <path id="Path_11424" fill="#c7e9f4" d="M409.61 955.5h-1.092a4.5 4.5 0 0 0-2.808-2.33l-.763-.213.033-.792c0-.066.01-.13.019-.194a3.993 3.993 0 0 0-5.594-3.636l-.807.352-.451-.755a6.059 6.059 0 0 0-1.573-1.75c-.116-.006-.227-.028-.344-.028a7 7 0 0 0-7 7c0 .115.011.228.017.342a6 6 0 0 0-4.017 5.658 5.9 5.9 0 0 0 .461 2.255A4.935 4.935 0 0 0 388 962h6.5v1h2v-5.5H410a5.45 5.45 0 0 0-.39-2z"/>
        <g id="Group_5774">
            <path id="Path_11425" d="M396.5 957.5V968H410v-10.5zm11.853.9l-5.1 4.5-5.1-4.5zm-10.953 8.7v-8.158l5.85 5.158 5.85-5.158v8.158z" class="cls-3"/>
            <path id="Path_11426" d="M383 957a5.005 5.005 0 0 1 3.348-4.714l.7-.247-.036-.745-.008-.137c0-.052-.008-.1-.008-.157a5.995 5.995 0 0 1 11.148-3.068l.451.755.807-.352a3.993 3.993 0 0 1 5.598 3.636c-.009.064-.016.128-.019.194l-.033.792.763.213a4.5 4.5 0 0 1 2.808 2.33h1.092a5.5 5.5 0 0 0-3.631-3.293c0-.07.021-.136.021-.207a4.992 4.992 0 0 0-6.994-4.581A6.994 6.994 0 0 0 386 951c0 .116.012.228.017.342A6 6 0 0 0 388 963h6.5v-1H388a5.006 5.006 0 0 1-5-5z" class="cls-3"/>
        </g>
    </g>
</svg>
