<svg xmlns="http://www.w3.org/2000/svg" width="32" height="32" viewBox="0 0 32 32">
    <g>
        <path fill="#c7e9f4" d="M118 227.672v12.84a31.829 31.829 0 0 0 6 .485c7.647 0 10-1.739 10-2.5v-11.842a18.837 18.837 0 0 0-7.529-1.213c-4.679 0-8.471.998-8.471 2.23z" transform="translate(-108 -219)"/>
        <path fill="#323232" d="M124 223c-8.1 0-10 1.852-10 2.5v13c0 .744 2.261 2.417 9.5 2.493v2.057a2.474 2.474 0 0 0-.894.376A2.5 2.5 0 0 0 121.55 245H115v1h6.55a2.5 2.5 0 0 0 1.052 1.573A2.5 2.5 0 0 0 124 248a2.5 2.5 0 0 0 2.45-2H133v-1h-6.55a2.5 2.5 0 0 0-1.95-1.945v-2.062c7.239-.076 9.5-1.749 9.5-2.493v-13c0-.648-1.9-2.5-10-2.5zm8.789 2.494c-.663.478-2.775 1.493-8.789 1.493-6.13 0-8.161-1.053-8.759-1.514C115.919 225 118.043 224 124 224c6.043 0 8.145 1.026 8.789 1.494zM125.408 245a1.491 1.491 0 1 1-1.408-1 1.483 1.483 0 0 1 1.408 1zM124 240c-6.86 0-8.7-1.388-9-1.673v-11.8c1.11.663 3.566 1.461 9 1.461 5.344 0 7.846-.795 9-1.446v11.786c-.3.284-2.14 1.672-9 1.672z" transform="translate(-108 -219)"/>
    </g>
</svg>
