<svg xmlns="http://www.w3.org/2000/svg" id="ic_object_storage" width="32" height="32" viewBox="0 0 32 32">
    <defs>
        <style>
            .cls-3{fill:#323232}
        </style>
    </defs>
    <g id="그룹_5853" transform="translate(-40 -219)">
        <path id="패스_11596" fill="#c7e9f4" d="M55 237h6v-10.505a19.776 19.776 0 0 0-6.851-.995c-4.5 0-8.149.961-8.149 2.146v16.214a25.7 25.7 0 0 0 6 .64c1.054 0 2.06-.053 3-.145z"/>
        <g id="그룹_5851">
            <path id="패스_11597" d="M61.5 238.5L61 237h-6v11.5h14v-10zm6.5 9H56V246h12zM56 245v-7h4.279l.272.816.228.684H68v5.5z" class="cls-3"/>
            <path id="패스_11598" d="M44.063 236.466H44v-4.324c1.494.806 4.512 1.358 8 1.358s6.506-.552 8-1.358V235h1v-9.5c0-1.381-4.029-2.5-9-2.5s-9 1.119-9 2.5V242h.006c.066 1.365 4.064 2.466 8.994 2.466.344 0 .667-.021 1-.032v-.986c-.321.011-.652.018-1 .018-4.745 0-7.4-.986-7.937-1.5H44v-4.358c1.494.806 4.512 1.358 8 1.358.344 0 .667-.021 1-.032v-.986c-.321.011-.652.018-1 .018-4.745 0-7.4-.986-7.937-1.5zM52 224c4.745 0 7.4.986 7.937 1.5-.542.514-3.192 1.5-7.937 1.5s-7.4-.986-7.937-1.5c.537-.514 3.192-1.5 7.937-1.5zm-8 2.642c1.494.806 4.512 1.358 8 1.358s6.506-.552 8-1.358V231h-.063c-.542.514-3.192 1.5-7.937 1.5s-7.4-.986-7.937-1.5H44z" class="cls-3"/>
        </g>
    </g>
</svg>
