<svg xmlns="http://www.w3.org/2000/svg" width="32" height="32" viewBox="0 0 32 32">
    <g>
        <path fill="#c7e9f4" d="M469.459 1794.292l5.816-3.061-9.5-5-9.5 5 5.816 3.061-5.816 3.061 5.816 3.061-5.816 3.061 9.5 5 9.5-5-5.816-3.061 5.816-3.061z" transform="translate(-449.275 -1779.5)"/>
        <path fill="#323232" d="M473.674 1792.939l5.6-3.061-13.5-7.378-13.5 7.378 5.6 3.061-5.6 3.061 5.6 3.061-5.6 3.061 13.5 7.378 13.5-7.378-5.6-3.061 5.6-3.061zm-19.522-3.061l11.623-6.352 11.623 6.352-4.662 2.548-.938.513-4.663 2.548-.938.513-.422.231-.422-.231-.938-.513-4.663-2.548-.938-.513zm23.246 12.244l-11.623 6.352-11.623-6.352 4.662-2.548 6.961 3.8 6.961-3.8zm-4.662-3.574l-.938.513-6.023 3.291-6.023-3.291-.938-.513-4.662-2.548 4.662-2.548 4.662 2.548.939.513 1.36.743 1.36-.743.939-.513 4.662-2.548L477.4 1796z" transform="translate(-449.275 -1779.5)"/>
    </g>
    <g>
        <path fill="none" d="M0 0H32V32H0z"/>
    </g>
</svg>
