<svg xmlns="http://www.w3.org/2000/svg" id="ic_managed" width="32" height="32" viewBox="0 0 32 32">
    <defs>
        <style>
            .cls-3{fill:#323232}
        </style>
    </defs>
    <g id="Group_5781" transform="translate(-584 -938)">
        <path id="Path_11434" fill="#c7e9f4" d="M612.055 952.68c.019-.224.035-.45.035-.68s-.016-.456-.035-.68c-.017-.21-.047-.417-.08-.622l2.025-1.533-2.5-4.33-2.332.984a7.951 7.951 0 0 0-1.035-.713l-.061-.038a7.977 7.977 0 0 0-1.167-.549L606.59 942h-5l-.315 2.519a7.927 7.927 0 0 0-1.167.549l-.061.038a7.932 7.932 0 0 0-1.034.713l-2.333-.984-2.5 4.33 1.156.875a4.463 4.463 0 0 1 2.947 7.449 8.241 8.241 0 0 0 .73.693 7.767 7.767 0 0 0 1.034.712l.061.037a7.927 7.927 0 0 0 1.167.549l.315 2.52h5l.315-2.519a8.024 8.024 0 0 0 1.167-.549l.062-.038a7.821 7.821 0 0 0 1.033-.712l2.332.984 2.5-4.33-2.025-1.533c.034-.203.064-.413.081-.623zm-7.965 2.82a3.5 3.5 0 1 1 3.5-3.5 3.5 3.5 0 0 1-3.5 3.5z"/>
        <g id="Group_5780">
            <path id="Path_11435" d="M607.59 952a3.5 3.5 0 1 0-3.5 3.5 3.5 3.5 0 0 0 3.5-3.5zm-6 0a2.5 2.5 0 1 1 2.5 2.5 2.5 2.5 0 0 1-2.5-2.5z" class="cls-3"/>
            <path id="Path_11436" d="M594.941 959a4.5 4.5 0 1 0-4.5-4.5 4.5 4.5 0 0 0 4.5 4.5zm0-8a3.5 3.5 0 1 1-3.5 3.5 3.5 3.5 0 0 1 3.5-3.5z" class="cls-3"/>
            <path id="Path_11437" d="M594.941 960a9 9 0 0 0-8.941 8h1.011a7.992 7.992 0 0 1 15.861 0h1.011a9 9 0 0 0-8.942-8z" class="cls-3"/>
            <path id="Path_11438" d="M612.09 952a8.1 8.1 0 0 0-.115-1.3l2.025-1.535-2.5-4.33-2.332.984a8 8 0 0 0-2.263-1.3L606.59 942h-5l-.315 2.519a7.984 7.984 0 0 0-2.263 1.3l-2.333-.984-1.621 2.807.9.436 1.142-1.978 1.519.641.557.235.467-.384a6.97 6.97 0 0 1 1.98-1.136l.565-.213.075-.6.206-1.643h3.234l.205 1.643.075.6.565.213a6.962 6.962 0 0 1 1.981 1.136l.467.384.557-.235 1.518-.641 1.618 2.8-1.322 1-.481.364.1.595a6.419 6.419 0 0 1 0 2.28l-.1.595.481.364 1.322 1-1.618 2.8-1.518-.641-.557-.235-.467.384a6.962 6.962 0 0 1-1.981 1.136l-.565.213-.075.6-.201 1.645h-3.234l-.206-1.643-.075-.6-.565-.213a7.153 7.153 0 0 1-1.176-.583c-.2.335-.374.62-.51.849a8.007 8.007 0 0 0 1.334.67l.315 2.52h5l.315-2.519a8 8 0 0 0 2.263-1.3l2.332.984 2.5-4.33-2.025-1.533a8.1 8.1 0 0 0 .115-1.302z" class="cls-3"/>
        </g>
    </g>
</svg>
