<?xml version="1.0" encoding="utf-8"?>
<!-- Generator: Adobe Illustrator 24.2.1, SVG Export Plug-In . SVG Version: 6.00 Build 0)  -->
<svg version="1.1" id="Layer_1" xmlns="http://www.w3.org/2000/svg" xmlns:xlink="http://www.w3.org/1999/xlink" x="0px" y="0px"
	 width="20px" height="20px" viewBox="0 0 20 20" style="enable-background:new 0 0 20 20;" xml:space="preserve">
<style type="text/css">
	.st0{fill:#333336;}
</style>
<g>
	<g>
		<path class="st0" d="M8.4,14c-0.1,0-0.2,0-0.3-0.1c-0.2-0.2-0.2-0.5,0-0.6L11,10L8.1,6.8C8,6.6,8,6.3,8.1,6.1s0.4-0.2,0.6,0
			l3.2,3.6c0.2,0.2,0.2,0.5,0,0.6l-3.2,3.6C8.6,14,8.5,14,8.4,14z"/>
	</g>
	<g>
		<path class="st0" d="M20,10c0,5.5-4.5,10-10,10S0,15.5,0,10C0,4.5,4.5,0,10,0C15.5,0,20,4.5,20,10z M1,10c0,5,4.1,9,9,9s9-4.1,9-9
			S15,1,10,1S1,5,1,10z"/>
	</g>
</g>
</svg>
