<svg xmlns="http://www.w3.org/2000/svg" width="20" height="20" viewBox="0 0 20 20">
  <defs>
    <style>
      .cls-1 {
        fill: #333336;
      }
    </style>
  </defs>
  <g id="레이어_2" data-name="레이어 2">
    <g id="Advanced">
      <g>
        <path class="cls-1" d="M6,8.4a.37942.37942,0,0,1,.13021-.28281.4799.4799,0,0,1,.62847,0L10,11.0344l3.24132-2.91718a.4799.4799,0,0,1,.62847,0,.37223.37223,0,0,1,0,.56562l-3.55555,3.2a.47991.47991,0,0,1-.62848,0l-3.55555-3.2A.37942.37942,0,0,1,6,8.4Z"/>
        <path class="cls-1" d="M10,20A10,10,0,1,1,20,10,10.01094,10.01094,0,0,1,10,20ZM10,.95238A9.04762,9.04762,0,1,0,19.04762,10,9.05791,9.05791,0,0,0,10,.95238Z"/>
      </g>
    </g>
  </g>
</svg>
