<svg xmlns="http://www.w3.org/2000/svg" width="21" height="30" viewBox="0 0 21 30">
    <path id="calculator" fill="#333336" d="M117 35.214A3.186 3.186 0 0 0 113.85 32h-14.7A3.186 3.186 0 0 0 96 35.214v23.572A3.186 3.186 0 0 0 99.15 62h14.7a3.186 3.186 0 0 0 3.15-3.214zm-16.275 23.572a1.607 1.607 0 1 1 1.575-1.607 1.591 1.591 0 0 1-1.575 1.607zm0-5.357a1.607 1.607 0 1 1 1.575-1.607 1.591 1.591 0 0 1-1.575 1.607zm0-5.357a1.607 1.607 0 1 1 1.575-1.607 1.591 1.591 0 0 1-1.575 1.606zm5.775 10.714a1.607 1.607 0 1 1 1.575-1.607 1.591 1.591 0 0 1-1.575 1.607zm0-5.357a1.607 1.607 0 1 1 1.575-1.607 1.591 1.591 0 0 1-1.575 1.607zm0-5.357a1.607 1.607 0 1 1 1.575-1.607 1.591 1.591 0 0 1-1.575 1.606zm7.35 9.107a1.575 1.575 0 1 1-3.15 0v-5.358a1.575 1.575 0 1 1 3.15 0zm-1.575-9.107a1.607 1.607 0 1 1 1.575-1.607 1.591 1.591 0 0 1-1.575 1.606zm1.267-6.743a1.04 1.04 0 0 1-.742.314h-12.6a1.061 1.061 0 0 1-1.05-1.071v-4.286a1.061 1.061 0 0 1 1.05-1.071h12.6a1.061 1.061 0 0 1 1.05 1.071v4.286a1.083 1.083 0 0 1-.308.757z" transform="translate(-96 -32)"/>
</svg>
