<svg xmlns="http://www.w3.org/2000/svg" width="36" height="36" viewBox="0 0 36 36">
  <defs>
    <style>
      .cls-1 {
        fill: #141e49;
      }

      .cls-2 {
        fill: #fff;
      }
    </style>
  </defs>
  <g id="레이어_2" data-name="레이어 2">
    <g id="GNB_language">
      <circle class="cls-1" cx="18" cy="18" r="18"/>
      <g>
        <path class="cls-2" d="M28.93707,27.83392,24.16266,16.14661a.84609.84609,0,0,0-1.56671,0L17.82153,27.83392a.84612.84612,0,0,0,1.56671.63959l1.149-2.8128h5.684l1.14905,2.8128a.84612.84612,0,0,0,1.56671-.63959Zm-7.70849-3.86548,2.15075-5.26483L25.53,23.96844Z"/>
        <path class="cls-2" d="M10.3327,9.249H13.98a.84613.84613,0,0,0,0-1.69226H10.3327a.84613.84613,0,0,0,0,1.69226Z"/>
        <path class="cls-2" d="M17.47864,11.18542a.84592.84592,0,0,0-.84613-.84613H7.84631a.84614.84614,0,0,0,0,1.69227h8.7862A.84593.84593,0,0,0,17.47864,11.18542Z"/>
        <path class="cls-2" d="M19.81543,18.428a.84589.84589,0,0,0,.84613-.84613V14.44934H22.6662a.84613.84613,0,0,0,0-1.69226H20.66156V7.84631a.84613.84613,0,1,0-1.69226,0v9.7356A.84589.84589,0,0,0,19.81543,18.428Z"/>
        <path class="cls-2" d="M17.14233,23.105H11.411V20.54254a.84613.84613,0,0,0-1.69226,0v3.40857a.84592.84592,0,0,0,.84613.84613h6.57745a.84613.84613,0,0,0,0-1.69226Z"/>
        <path class="cls-2" d="M16.51678,16.00446c0-1.8183-1.85919-3.29737-4.14477-3.29737-2.28552,0-4.14478,1.47907-4.14478,3.29737,0,1.81793,1.85926,3.297,4.14478,3.297C14.65759,19.30145,16.51678,17.82239,16.51678,16.00446Zm-6.59722,0c0-.87006,1.12292-1.60511,2.45245-1.60511s2.45251.735,2.45251,1.60511c0,.86969-1.123,1.60473-2.45251,1.60473S9.91956,16.87415,9.91956,16.00446Z"/>
      </g>
    </g>
  </g>
</svg>
