<svg xmlns="http://www.w3.org/2000/svg" width="36" height="36" viewBox="0 0 36 36">
  <defs>
    <style>
      .cls-1 {
        fill: #141e49;
      }

      .cls-2 {
        fill: #fff;
      }
    </style>
  </defs>
  <g id="레이어_2" data-name="레이어 2">
    <g id="GNB_account">
      <circle class="cls-1" cx="18" cy="18" r="18"/>
      <g>
        <path class="cls-2" d="M18.16766,6.00049a12.00067,12.00067,0,0,0-.33441,23.999c.05585.00092.11176.00092.16858.00092a12.01251,12.01251,0,0,0,11.997-12.16626A12.08263,12.08263,0,0,0,18.16766,6.00049Zm-.16674,22.15375c-.04688,0-.09467,0-.14246-.00092a10.11085,10.11085,0,0,1-6.78589-2.7666,7.78737,7.78737,0,0,1,1.07721-.81946,10.932,10.932,0,0,1,5.84662-1.624,10.93523,10.93523,0,0,1,5.852,1.62762,7.7592,7.7592,0,0,1,1.09253.83429A10.06738,10.06738,0,0,1,18.00092,28.15424Zm8.1687-4.12745A9.53085,9.53085,0,0,0,24.84,23.014a12.78933,12.78933,0,0,0-6.84363-1.917,12.78593,12.78593,0,0,0-6.8382,1.91339,9.619,9.619,0,0,0-1.31427.99743,10.08778,10.08778,0,0,1,.98072-13.18359A9.94376,9.94376,0,0,1,18.1424,7.84674,10.2233,10.2233,0,0,1,28.15277,17.85938,10.05625,10.05625,0,0,1,26.16962,24.02679Z"/>
        <path class="cls-2" d="M18,10.27258a4.61554,4.61554,0,1,0,4.6153,4.61554A4.62084,4.62084,0,0,0,18,10.27258Zm0,7.38489a2.76935,2.76935,0,1,1,2.76917-2.76935A2.77227,2.77227,0,0,1,18,17.65747Z"/>
      </g>
    </g>
  </g>
</svg>
