<svg xmlns="http://www.w3.org/2000/svg" width="36" height="36" viewBox="0 0 36 36">
  <defs>
    <style>
      .cls-1 {
        fill: #141e49;
      }

      .cls-2 {
        fill: #fff;
      }
    </style>
  </defs>
  <g id="레이어_2" data-name="레이어 2">
    <g id="GNB_Noti">
      <circle class="cls-1" cx="18" cy="18" r="18"/>
      <path class="cls-2" d="M27.56543,22.49365l-.25269-.31592c-1.12915-1.404-1.81012-2.25134-1.81012-6.2362,0-3.67609-1.43109-6.0694-4.37384-7.28723A3.394,3.394,0,0,0,18.00085,6a3.3889,3.3889,0,0,0-3.1253,2.62408c-2.94275,1.24762-4.37384,3.64093-4.37384,7.317-.00263,3.98529-.68445,4.83264-1.8136,6.23706l-.25262.31549a2.00015,2.00015,0,0,0,1.57733,3.2461h3.79767a4.19055,4.19055,0,1,0,8.37994,0h3.8028a1.97877,1.97877,0,0,0,1.82659-1.171A1.99959,1.99959,0,0,0,27.56543,22.49365Zm-9.56458,5.66016a2.45285,2.45285,0,0,1-2.41827-2.41406h4.83569A2.45265,2.45265,0,0,1,18.00085,28.15381Zm8.21564-4.37152c-.019.04144-.07269.11133-.22326.11133H10.01282c-.16181,0-.2146-.07886-.23017-.11268a.094.094,0,0,1,.01819-.11041l.24573-.30652c1.37921-1.715,2.22455-2.991,2.22717-7.42248,0-3.7414,1.74781-4.962,3.26892-5.60694A1.8334,1.8334,0,0,0,16.574,9.17889a1.65114,1.65114,0,0,1,1.42681-1.33276,1.65942,1.65942,0,0,1,1.4303,1.335,1.832,1.832,0,0,0,1.02967,1.153c1.522.64544,3.26977,1.866,3.26977,5.60742,0,4.4306.84534,5.7066,2.22369,7.42157L26.2,23.67A.09613.09613,0,0,1,26.21649,23.78229Z"/>
    </g>
  </g>
</svg>
