<svg xmlns="http://www.w3.org/2000/svg" width="18.5" height="19" viewBox="0 0 18.5 19">
  <defs>
    <style>
      .cls-1 {
        fill: none;
        stroke: #333336;
        stroke-miterlimit: 10;
      }
    </style>
  </defs>
  <g id="레이어_2" data-name="레이어 2">
    <g id="LNB_Setting">
      <path class="cls-1" d="M9.51459,6.82145a2.69153,2.69153,0,1,0,2.41449,2.414A2.692,2.692,0,0,0,9.51459,6.82145ZM15.9967,9.5a6.48939,6.48939,0,0,1-.06436.87435l1.90173,1.4913a.45458.45458,0,0,1,.103.57828L16.138,15.55607a.45475.45475,0,0,1-.55272.193l-1.88869-.76037a.67777.67777,0,0,0-.63812.0736,6.91888,6.91888,0,0,1-.90606.52738.6704.6704,0,0,0-.371.51056l-.28309,2.01407a.466.466,0,0,1-.44925.38565H7.45091a.46731.46731,0,0,1-.44967-.373l-.28267-2.01112A.67582.67582,0,0,0,6.34,15.60192a6.5335,6.5335,0,0,1-.9027-.52865.67314.67314,0,0,0-.63559-.07191l-1.88827.75995a.45475.45475,0,0,1-.55272-.19262L.56161,12.45654a.45415.45415,0,0,1,.10306-.57827L2.272,10.61659a.675.675,0,0,0,.25239-.59215c-.01515-.17537-.0244-.35033-.0244-.5257s.00883-.3478.0244-.51939A.67286.67286,0,0,0,2.269,8.39309L.66257,7.1314a.45457.45457,0,0,1-.09969-.57533L2.362,3.44393a.45475.45475,0,0,1,.55272-.193l1.88869.76037a.67777.67777,0,0,0,.63812-.0736,6.91888,6.91888,0,0,1,.90606-.52738.67038.67038,0,0,0,.371-.51056L7.00166.88565A.466.466,0,0,1,7.45091.5h3.59818a.46731.46731,0,0,1,.44967.373l.28267,2.01112a.67582.67582,0,0,0,.37858.51392,6.5335,6.5335,0,0,1,.9027.52865.67314.67314,0,0,0,.63559.07191l1.88827-.75995a.45475.45475,0,0,1,.55272.19262l1.7991,3.11215a.45415.45415,0,0,1-.10306.57827L16.22805,8.38341a.675.675,0,0,0-.25449.59215C15.98744,9.14967,15.9967,9.32463,15.9967,9.5Z"/>
    </g>
  </g>
</svg>
