<svg xmlns="http://www.w3.org/2000/svg" width="18" height="12" viewBox="0 0 18 12">
  <defs>
    <style>
      .cls-1 {
        fill: #333336;
      }
    </style>
  </defs>
  <g id="레이어_2" data-name="레이어 2">
    <g id="LNB_MSAzure">
      <g>
        <g>
          <path class="cls-1" d="M14.10783,11.38128H11.3217c-.01249,0-.11287-.00412-.12536-.005a.90875.90875,0,0,1-.10639.005H9.05088a.46864.46864,0,1,1,0-.93723H11.09a.4676.4676,0,0,1,.05088.00275l.00046-.005c.01989-.00183.09483-.00229.11565-.00092l2.85089.0032a2.82151,2.82151,0,0,0,2.9448-2.67165,2.7981,2.7981,0,0,0-2.20328-2.61993.46978.46978,0,0,1-.36035-.4256A4.218,4.218,0,0,0,10.16108.93723,4.72592,4.72592,0,0,0,6.56589,2.59294a.478.478,0,0,1-.58054.12493L5.56949,2.5728c-.13137-.02974-.18688-.038-.24193-.04576a2.37913,2.37913,0,0,0-.30669-.02288A1.99265,1.99265,0,0,0,2.93693,4.38548a.56621.56621,0,0,1-.25488.51621,3.132,3.132,0,0,0-1.73468,2.657,3.04508,3.04508,0,0,0,3.177,2.88536H7.0146a.46864.46864,0,1,1,0,.93723H4.12438A3.98666,3.98666,0,0,1,0,7.55869,4.02342,4.02342,0,0,1,1.99558,4.20837,2.9507,2.9507,0,0,1,5.02087,1.56693c.11379,0,.22481.00686.33537.01785l.10547.01464c.07447.01007.15034.022.22481.03753.006.00137.10362.02425.10964.02608.07725.01922.14571.03844.21186.05949l.05181.01785A5.65624,5.65624,0,0,1,10.16108,0a5.19012,5.19012,0,0,1,5.2406,4.33605A3.72362,3.72362,0,0,1,18,7.7724,3.76309,3.76309,0,0,1,14.10783,11.38128Z"/>
          <path class="cls-1" d="M9.297,8.338a.47478.47478,0,0,1-.33491-.13729.46491.46491,0,0,1,0-.66265l1.039-1.02784,1.48859-1.38388a4.06486,4.06486,0,0,1,3.58131-.88506.468.468,0,0,1,.35156.56381.47507.47507,0,0,1-.5699.3478,3.101,3.101,0,0,0-2.72091.664L9.63189,8.20075A.47482.47482,0,0,1,9.297,8.338Z"/>
        </g>
        <path class="cls-1" d="M8.03274,12a1.42528,1.42528,0,0,1-1.00519-.41141L3.56327,8.16139a.46491.46491,0,0,1,0-.66265.47715.47715,0,0,1,.66982,0l3.46474,3.4272a.47715.47715,0,0,0,.66982,0l1.33964-1.3253a.46655.46655,0,0,0,0-.66219L6.27539,5.54328l-.02174-.01876-.11657-.10571a3.06591,3.06591,0,0,0-3.43976-.51575.47815.47815,0,0,1-.637-.20548.46663.46663,0,0,1,.2077-.63016,3.99712,3.99712,0,0,1,1.78881-.42056A3.874,3.874,0,0,1,6.79071,4.7406l.06985.06269a.52792.52792,0,0,1,.05181.0444l3.46474,3.42765a1.3969,1.3969,0,0,1,0,1.98795l-1.33964,1.3253A1.425,1.425,0,0,1,8.03274,12Z"/>
      </g>
    </g>
  </g>
</svg>
