<svg xmlns="http://www.w3.org/2000/svg" width="17" height="16" viewBox="0 0 17 16">
  <defs>
    <style>
      .cls-1 {
        fill: #333336;
      }
    </style>
  </defs>
  <g id="레이어_2" data-name="레이어 2">
    <g id="LNB_CDN">
      <g>
        <path class="cls-1" d="M4.05355,13.61283a.46086.46086,0,0,1-.3182-.12881A7.45233,7.45233,0,0,1,1.57992,9.58775a.4933.4933,0,0,1,.36062-.58811.47111.47111,0,0,1,.56168.37679,6.45834,6.45834,0,0,0,1.86952,3.37716.51025.51025,0,0,1,.03136.69762A.46239.46239,0,0,1,4.05355,13.61283Z"/>
        <path class="cls-1" d="M8.5,15.41045a6.78392,6.78392,0,0,1-2.16189-.35171.49941.49941,0,0,1-.30621-.62092.469.469,0,0,1,.594-.31986,5.9483,5.9483,0,0,0,3.7455.001.46463.46463,0,0,1,.594.32035.49885.49885,0,0,1-.3062.62043A6.792,6.792,0,0,1,8.5,15.41045Z"/>
        <path class="cls-1" d="M12.94461,13.6138a.46131.46131,0,0,1-.34956-.16211.50939.50939,0,0,1,.03228-.69762,6.44784,6.44784,0,0,0,1.87137-3.381.4722.4722,0,0,1,.56168-.37776.495.495,0,0,1,.36063.5881,7.436,7.436,0,0,1-2.15913,3.90207A.45872.45872,0,0,1,12.94461,13.6138Z"/>
        <path class="cls-1" d="M14.96077,7.02255a.47714.47714,0,0,1-.46115-.38933,6.45964,6.45964,0,0,0-1.87136-3.38729.51.51,0,0,1-.03229-.69811.46008.46008,0,0,1,.66776-.03329,7.4464,7.4464,0,0,1,2.1582,3.9093.49413.49413,0,0,1-.36155.58763A.44355.44355,0,0,1,14.96077,7.02255Z"/>
        <path class="cls-1" d="M6.482,1.90568a.47548.47548,0,0,1-.45009-.3435A.49919.49919,0,0,1,6.33811.94126a6.8452,6.8452,0,0,1,4.321-.001.49885.49885,0,0,1,.3062.62043.4664.4664,0,0,1-.594.32035,5.94153,5.94153,0,0,0-3.7455.001A.44087.44087,0,0,1,6.482,1.90568Z"/>
        <path class="cls-1" d="M2.03923,7.02255a.44355.44355,0,0,1-.09961-.01109.49386.49386,0,0,1-.36155-.58714A7.43218,7.43218,0,0,1,3.73812,2.51405a.45857.45857,0,0,1,.66683.03329.51.51,0,0,1-.03228.69811A6.45471,6.45471,0,0,0,2.50038,6.63273.4771.4771,0,0,1,2.03923,7.02255Z"/>
        <path class="cls-1" d="M5.17231,3.95224A1.93619,1.93619,0,0,1,3.28342,1.97612,1.93619,1.93619,0,0,1,5.17231,0,1.93619,1.93619,0,0,1,7.0612,1.97612,1.93619,1.93619,0,0,1,5.17231,3.95224Zm0-2.96418a.968.968,0,0,0-.94445.98806.94541.94541,0,1,0,1.88889,0A.968.968,0,0,0,5.17231.98806Z"/>
        <path class="cls-1" d="M1.88889,9.97612A1.93619,1.93619,0,0,1,0,8,1.93619,1.93619,0,0,1,1.88889,6.02388,1.93619,1.93619,0,0,1,3.77778,8,1.93619,1.93619,0,0,1,1.88889,9.97612Zm0-2.96418a.98907.98907,0,0,0,0,1.97612.98907.98907,0,0,0,0-1.97612Z"/>
        <path class="cls-1" d="M5.17231,16a1.97813,1.97813,0,0,1,0-3.95224,1.97813,1.97813,0,0,1,0,3.95224Zm0-2.96418a.98907.98907,0,1,0,.94444.98806A.968.968,0,0,0,5.17231,13.03582Z"/>
        <path class="cls-1" d="M11.82492,16a1.97813,1.97813,0,1,1,1.88889-1.97612A1.93619,1.93619,0,0,1,11.82492,16Zm0-2.96418a.98907.98907,0,1,0,.94445.98806A.96795.96795,0,0,0,11.82492,13.03582Z"/>
        <path class="cls-1" d="M15.11111,9.97612A1.93619,1.93619,0,0,1,13.22222,8,1.89082,1.89082,0,1,1,17,8,1.93619,1.93619,0,0,1,15.11111,9.97612Zm0-2.96418A.98907.98907,0,1,0,16.05556,8,.96795.96795,0,0,0,15.11111,7.01194Z"/>
        <path class="cls-1" d="M11.83415,3.95224A1.93619,1.93619,0,0,1,9.94526,1.97612a1.89082,1.89082,0,1,1,3.77778,0A1.9362,1.9362,0,0,1,11.83415,3.95224Zm0-2.96418a.968.968,0,0,0-.94445.98806.94541.94541,0,1,0,1.88889,0A.968.968,0,0,0,11.83415.98806Z"/>
      </g>
    </g>
  </g>
</svg>
