<svg xmlns="http://www.w3.org/2000/svg" width="15" height="16" viewBox="0 0 15 16">
  <defs>
    <style>
      .cls-1 {
        fill: #333336;
      }
    </style>
  </defs>
  <g id="레이어_2" data-name="레이어 2">
    <g id="masking">
      <path class="cls-1" d="M6.77859,16V10.28183a4.22987,4.22987,0,0,1,.06815-.80462,3.42355,3.42355,0,0,1,.28567-.80558,3.01929,3.01929,0,0,1-.58535.61682,7.49961,7.49961,0,0,1-.6941.45665L.73519,12.67187.05462,11.49068,5.1724,8.53721A3.68785,3.68785,0,0,1,5.90758,8.215a6.61158,6.61158,0,0,1,.84394-.18781,4.05618,4.05618,0,0,1-.85747-.2145,5.89891,5.89891,0,0,1-.72165-.34893L0,4.51028.70812,3.30239,5.853,6.2549a3.92746,3.92746,0,0,1,.6941.52434q.25884.25455.64.7112a5.87382,5.87382,0,0,1-.31322-.9,3.53164,3.53164,0,0,1-.09522-.84562V0H8.19434V5.71817a5.12928,5.12928,0,0,1-.06815.87231,3.72786,3.72786,0,0,1-.28567.87326,4.89269,4.89269,0,0,1,.59888-.71215A3.55081,3.55081,0,0,1,9.147,6.2549l5.11777-2.92582L14.97245,4.537,9.85467,7.46374a4.9951,4.9951,0,0,1-.76225.37562,3.38316,3.38316,0,0,1-.81639.18781A6.07189,6.07189,0,0,1,9.106,8.215a4.63116,4.63116,0,0,1,.74872.32223L15,11.49068l-.68057,1.20788L9.147,9.7451a6.12535,6.12535,0,0,1-.68057-.45665,3.88872,3.88872,0,0,1-.62595-.67116c.10876.32223.1948.60061.2586.83227a3.08532,3.08532,0,0,1,.09522.80558V16Z"/>
    </g>
  </g>
</svg>
