<svg xmlns="http://www.w3.org/2000/svg" width="16" height="10.35294" viewBox="0 0 16 10.35294">
  <defs>
    <style>
      .cls-1 {
        fill: #333336;
      }
    </style>
  </defs>
  <g id="레이어_2" data-name="레이어 2">
    <g id="Satisfaction">
      <path class="cls-1" d="M4.34716,4.56379,3.76449,3.38657,3.18178,4.56379,1.8821,4.75417l.93958.91795L2.60113,6.967l1.16336-.60995L4.92784,6.967l-.22058-1.2949.93955-.91795Z"/>
      <path class="cls-1" d="M8.58249,4.56379,7.99981,3.38657,7.4171,4.56379l-1.29968.19038.93958.91795L6.83645,6.967l1.16336-.60995L9.16316,6.967l-.22058-1.2949.93955-.91795Z"/>
      <path class="cls-1" d="M12.81781,4.56379l-.58268-1.17722-.58271,1.17722-1.29967.19038.93957.91795L11.07177,6.967l1.16336-.60995,1.16335.60995-.22058-1.2949.93955-.91795Z"/>
      <path class="cls-1" d="M13.64706,10.35294H2.35294A2.21505,2.21505,0,0,1,0,8.31434V2.03952A2.21513,2.21513,0,0,1,2.35294,0H13.64706A2.21513,2.21513,0,0,1,16,2.03952V8.31434A2.21505,2.21505,0,0,1,13.64706,10.35294ZM2.35294.94118A1.2864,1.2864,0,0,0,.94118,2.03952V8.31434A1.28643,1.28643,0,0,0,2.35294,9.41176H13.64706a1.28643,1.28643,0,0,0,1.41176-1.09742V2.03952A1.2864,1.2864,0,0,0,13.64706.94118Z"/>
    </g>
  </g>
</svg>
