<svg xmlns="http://www.w3.org/2000/svg" width="16" height="16" viewBox="0 0 16 16">
  <defs>
    <style>
      .cls-1 {
        fill: #333336;
      }
    </style>
  </defs>
  <g id="레이어_2" data-name="레이어 2">
    <g id="Table_Techcenter">
      <g>
        <path class="cls-1" d="M13.55281,16a.45937.45937,0,0,1-.33266-.14467l-2.8745-3.01405-8.93045.00289a1.44926,1.44926,0,0,1-1.41244-1.4805L0,1.48725A1.51032,1.51032,0,0,1,.41262.43981a1.37043,1.37043,0,0,1,.998-.435L14.5848,0a1.45106,1.45106,0,0,1,1.41244,1.4805L16,11.35789a1.44919,1.44919,0,0,1-1.4106,1.48146h-.567l.00092,2.66683a.49487.49487,0,0,1-.29039.4562A.45409.45409,0,0,1,13.55281,16Zm-3.01235-4.14636a.45921.45921,0,0,1,.33267.14467l2.20918,2.31575-.00092-1.96853a.50614.50614,0,0,1,.13784-.34915.45919.45919,0,0,1,.33266-.14467H14.5894a.48277.48277,0,0,0,.46959-.49382l-.00276-9.87643A.48488.48488,0,0,0,14.5848.98764L1.41061.99246a.456.456,0,0,0-.33175.14564A.50139.50139,0,0,0,.941,1.48629l.00276,9.87738a.48282.48282,0,0,0,.47142.49286Z"/>
        <g>
          <path class="cls-1" d="M7.86427,7.83931a.3075.3075,0,0,1-.3-.31484A1.69709,1.69709,0,0,1,8.369,6.07076c.53229-.37511.85864-.63338.85864-1.193a.97792.97792,0,0,0-.63219-.891A1.41855,1.41855,0,0,0,8.004,3.889a1.23156,1.23156,0,0,0-.80855.26627,1.117,1.117,0,0,0-.42273.70656.31185.31185,0,0,1-.31814.29209.30737.30737,0,0,1-.28094-.32653A1.745,1.745,0,0,1,6.819,3.66452a1.81683,1.81683,0,0,1,1.17649-.40524,1.98528,1.98528,0,0,1,.85806.15865,1.6014,1.6014,0,0,1,.97406,1.45986A2.01937,2.01937,0,0,1,8.70328,6.59345a1.04875,1.04875,0,0,0-.539.931A.3075.3075,0,0,1,7.86427,7.83931Z"/>
          <ellipse class="cls-1" cx="7.83697" cy="9.01266" rx="0.54542" ry="0.57245"/>
        </g>
      </g>
    </g>
  </g>
</svg>
