<svg xmlns="http://www.w3.org/2000/svg" width="16" height="14" viewBox="0 0 16 14">
  <defs>
    <style>
      .cls-1 {
        fill: #333336;
      }
    </style>
  </defs>
  <g id="레이어_2" data-name="레이어 2">
    <g id="Table_Manual">
      <path class="cls-1" d="M8,14a.47515.47515,0,0,1-.37408-.17933c-.82077-1.04045-2.18934-2.00279-6.61764-2.00279A1.01543,1.01543,0,0,1,0,10.75257V1.00051A1.00327,1.00327,0,0,1,1.00276,0C4.72886.01687,6.99265.81674,8,2.49727,9.00736.81674,11.27022.01687,14.98989,0h.00276a1.00286,1.00286,0,0,1,.71783.2974A.99023.99023,0,0,1,16,.99429v9.824a1.005,1.005,0,0,1-1.00827.99962c-4.42831,0-5.79687.96234-6.61765,2.00279A.47514.47514,0,0,1,8,14ZM1.00644.90907c-.03125,0-.06526.03906-.06526.08966v9.75384c0,.03285.011.15624.0671.15624,3.56066,0,5.64889.56728,6.99172,1.93532,1.34283-1.368,3.43107-1.93532,6.99173-1.93532a.083.083,0,0,0,.06709-.09055V1.00051c0-.03906-.02849-.09144-.06525-.09144h0C9.84191.933,8.79412,2.48484,8.45772,3.83424a.49516.49516,0,0,1-.91544,0C7.20589,2.48484,6.15809.933,1.00644.90907Z"/>
    </g>
  </g>
</svg>
