<svg xmlns="http://www.w3.org/2000/svg" width="20" height="20" viewBox="0 0 20 20">
  <defs>
    <style>
      .cls-1 {
        fill: #4ea744;
      }

      .cls-2 {
        fill: #fff;
      }

      .cls-3 {
        fill: #32742a;
      }
    </style>
  </defs>
  <title>Table_Excel Download</title>
  <g id="레이어_2" data-name="레이어 2">
    <g id="Table_Excel_Download" data-name="Table_Excel Download">
      <g>
        <path class="cls-1" d="M19.44444,2.22222H10.55556V17.77778h8.88888A.555.555,0,0,0,20,17.22222V2.77778A.55505.55505,0,0,0,19.44444,2.22222Z"/>
        <path class="cls-2" d="M14.44444,5h3.88889V6.66667H14.44444Zm0,5.55556h3.88889v1.66666H14.44444Zm0,2.77777h3.88889V15H14.44444Zm0-5.55555h3.88889V9.44444H14.44444ZM10.55556,5h2.77777V6.66667H10.55556Zm0,5.55556h2.77777v1.66666H10.55556Zm0,2.77777h2.77777V15H10.55556Zm0-5.55555h2.77777V9.44444H10.55556Z"/>
        <path class="cls-3" d="M11.66667,20,0,17.77778V2.22222L11.66667,0Z"/>
        <path class="cls-2" d="M7.29389,13.88889,5.95444,11.355a2.23018,2.23018,0,0,1-.15777-.52111H5.77611a3.99917,3.99917,0,0,1-.18.54389l-1.345,2.51111H2.16389L4.64278,9.99944,2.37444,6.11111H4.50611L5.61778,8.44222a4.05386,4.05386,0,0,1,.23333.655h.02222c.04334-.15055.12445-.37778.24389-.67778L7.35389,6.11111H9.30667l-2.33278,3.855,2.39778,3.92167H7.29389Z"/>
      </g>
    </g>
  </g>
</svg>
