<?xml version="1.0" encoding="utf-8"?>
<!-- Generator: Adobe Illustrator 26.2.1, SVG Export Plug-In . SVG Version: 6.00 Build 0)  -->
<svg version="1.1" id="Layer_1" xmlns="http://www.w3.org/2000/svg" xmlns:xlink="http://www.w3.org/1999/xlink" x="0px" y="0px"
	 width="20px" height="20px" viewBox="0 0 20 20" style="enable-background:new 0 0 20 20;" xml:space="preserve">
<style type="text/css">
	.st0{fill:#333336;}
</style>
<g id="레이어_2">
	<g id="Table_Refresh">
		<g>
			<g>
				<path class="st0" d="M9.4,18c-4.4,0-8-3.6-8-8s3.6-8,8-8h0c2.2,0,4.3,0.9,5.8,2.5l0.8,1c0.2,0.3,0.2,0.6-0.1,0.9
					c-0.3,0.2-0.6,0.2-0.9-0.1l-0.8-0.9C13,4,11.2,3.2,9.4,3.2h0c-3.7,0-6.8,3-6.8,6.8s3,6.8,6.8,6.8c2.9,0,5.4-1.8,6.4-4.5
					c0.1-0.3,0.5-0.5,0.8-0.4c0.3,0.1,0.5,0.5,0.4,0.8C15.8,15.9,12.8,18,9.4,18z"/>
				<path class="st0" d="M18,3.9v4.3c0,0.3-0.3,0.6-0.6,0.6h-4.3c-0.3,0-0.6-0.3-0.6-0.6c0-0.2,0.1-0.3,0.2-0.4l4.3-4.3
					c0.2-0.2,0.6-0.2,0.9,0C17.9,3.6,18,3.7,18,3.9z"/>
			</g>
		</g>
	</g>
</g>
</svg>
