<svg xmlns="http://www.w3.org/2000/svg" width="5" height="10" viewBox="0 0 5 10">
  <defs>
    <style>
      .cls-1 {
        fill: #333336;
      }
    </style>
  </defs>
  <title>Table_Sort Down</title>
  <g id="레이어_2" data-name="레이어 2">
    <g id="Table_Sort_Down" data-name="Table_Sort Down">
      <g>
        <path class="cls-1" d="M2.5,10a.39968.39968,0,0,1-.2946-.13317L.12207,7.59411a.48409.48409,0,0,1,0-.64276.39243.39243,0,0,1,.58919,0l1.37207,1.4968V.45455A.43659.43659,0,0,1,2.5,0a.43659.43659,0,0,1,.41667.45455v9.0909a.457.457,0,0,1-.25716.41993A.38918.38918,0,0,1,2.5,10Z"/>
        <path class="cls-1" d="M2.5,10a.39842.39842,0,0,1-.2946-.13317.48408.48408,0,0,1,0-.64275L4.28874,6.95135a.39243.39243,0,0,1,.58919,0,.48409.48409,0,0,1,0,.64276L2.7946,9.86683A.39842.39842,0,0,1,2.5,10Z"/>
      </g>
    </g>
  </g>
</svg>
