<svg xmlns="http://www.w3.org/2000/svg" width="16" height="16" viewBox="0 0 16 16">
  <defs>
    <style>
      .cls-1 {
        fill: #333336;
      }
    </style>
  </defs>
  <g id="레이어_2" data-name="레이어 2">
    <g id="Table_Information">
      <g>
        <path class="cls-1" d="M8,16a8,8,0,1,1,8-8A8.00923,8.00923,0,0,1,8,16ZM8,.94118A7.05882,7.05882,0,1,0,15.05882,8,7.06654,7.06654,0,0,0,8,.94118Z"/>
        <path class="cls-1" d="M8.1636,12.07169A.47032.47032,0,0,1,7.693,11.6011V7.32445H6.85432a.47059.47059,0,1,1,0-.94118H8.1636a.47032.47032,0,0,1,.47059.47059V11.6011A.47032.47032,0,0,1,8.1636,12.07169Z"/>
        <path class="cls-1" d="M9.96415,12.23529H6.36305a.47059.47059,0,1,1,0-.94117h3.6011a.47059.47059,0,1,1,0,.94117Z"/>
        <path class="cls-1" d="M8,3.17108A1.06394,1.06394,0,1,0,9.0639,4.235,1.06394,1.06394,0,0,0,8,3.17108Z"/>
      </g>
    </g>
  </g>
</svg>
