<svg xmlns="http://www.w3.org/2000/svg" width="14" height="14" viewBox="0 0 14 14">
  <defs>
    <style>
      .cls-1 {
        fill: #fff;
      }

      .cls-2 {
        fill: #333336;
      }
    </style>
  </defs>
  <g id="레이어_2" data-name="레이어 2">
    <g id="Table_Copy">
      <g>
        <g>
          <rect class="cls-1" x="0.46669" y="0.46669" width="9.33333" height="9.33333" rx="1.86667"/>
          <path class="cls-2" d="M7.93333,10.26667h-5.6A2.3355,2.3355,0,0,1,0,7.93333v-5.6A2.33549,2.33549,0,0,1,2.33333,0h5.6a2.3355,2.3355,0,0,1,2.33334,2.33333v5.6A2.3355,2.3355,0,0,1,7.93333,10.26667Zm-5.6-9.33334a1.40154,1.40154,0,0,0-1.4,1.4v5.6a1.40153,1.40153,0,0,0,1.4,1.4h5.6a1.40152,1.40152,0,0,0,1.4-1.4v-5.6a1.40153,1.40153,0,0,0-1.4-1.4Z"/>
        </g>
        <g>
          <rect class="cls-1" x="4.20005" y="4.20005" width="9.33333" height="9.33333" rx="1.86667"/>
          <path class="cls-2" d="M11.66667,14h-5.6a2.3355,2.3355,0,0,1-2.33334-2.33333v-5.6A2.3355,2.3355,0,0,1,6.06667,3.73333h5.6A2.3355,2.3355,0,0,1,14,6.06667v5.6A2.33549,2.33549,0,0,1,11.66667,14Zm-5.6-9.33333a1.40152,1.40152,0,0,0-1.4,1.4v5.6a1.40153,1.40153,0,0,0,1.4,1.4h5.6a1.40154,1.40154,0,0,0,1.4-1.4v-5.6a1.40153,1.40153,0,0,0-1.4-1.4Z"/>
        </g>
      </g>
    </g>
  </g>
</svg>
