<svg xmlns="http://www.w3.org/2000/svg" width="20" height="20" viewBox="0 0 20 20">
  <defs>
    <style>
      .cls-1 {
        fill: #fff;
      }

      .cls-2 {
        fill: #333336;
      }
    </style>
  </defs>
  <g id="레이어_2" data-name="레이어 2">
    <g id="Table_Search">
      <g>
        <rect class="cls-1" width="20" height="20"/>
        <path class="cls-2" d="M8.5459,15.59082A7.04541,7.04541,0,1,1,15.59082,8.5459,7.0535,7.0535,0,0,1,8.5459,15.59082ZM8.5459,2.5a6.04541,6.04541,0,1,0,6.04492,6.0459A6.0524,6.0524,0,0,0,8.5459,2.5Z"/>
        <path class="cls-2" d="M18,18.5a.49842.49842,0,0,1-.35352-.14648l-4.82617-4.82618a.49995.49995,0,0,1,.707-.707l4.82618,4.82617A.5.5,0,0,1,18,18.5Z"/>
      </g>
    </g>
  </g>
</svg>
