<svg xmlns="http://www.w3.org/2000/svg" width="16" height="16" viewBox="0 0 16 16">
  <defs>
    <style>
      .cls-1 {
        fill: #dc3f13;
      }
    </style>
  </defs>
  <g id="레이어_2" data-name="레이어 2">
    <g id="Toast_Fail">
      <g>
        <path class="cls-1" d="M8,16a8,8,0,1,1,8-8A8.00923,8.00923,0,0,1,8,16ZM8,.94118A7.05882,7.05882,0,1,0,15.05882,8,7.06654,7.06654,0,0,0,8,.94118Z"/>
        <path class="cls-1" d="M10.50965,10.9807a.46908.46908,0,0,1-.33272-.13787L5.15763,5.82261a.47054.47054,0,0,1,.66544-.66544l5.0193,5.02022a.47059.47059,0,0,1-.33272.80331Z"/>
        <path class="cls-1" d="M5.49035,10.9807a.47059.47059,0,0,1-.33272-.80331l5.0193-5.02022a.47054.47054,0,0,1,.66544.66544l-5.0193,5.02022A.46908.46908,0,0,1,5.49035,10.9807Z"/>
      </g>
    </g>
  </g>
</svg>
