<svg xmlns="http://www.w3.org/2000/svg" width="16" height="16" viewBox="0 0 16 16">
  <defs>
    <style>
      .cls-1 {
        fill: #fd9a12;
      }
    </style>
  </defs>
  <g id="레이어_2" data-name="레이어 2">
    <g id="Toast_Info">
      <path class="cls-1" d="M8,16a8,8,0,1,1,8-8A8.00923,8.00923,0,0,1,8,16ZM8,.94118A7.05882,7.05882,0,1,0,15.05882,8,7.06654,7.06654,0,0,0,8,.94118Z"/>
      <path class="cls-1" d="M7.99512,11.97461a.84465.84465,0,0,1-.64991-.28223,1.08126,1.08126,0,0,1,0-1.40722.84465.84465,0,0,1,.64991-.28223.86149.86149,0,0,1,.65478.28223,1.06617,1.06617,0,0,1,0,1.40722A.86149.86149,0,0,1,7.99512,11.97461ZM7.30518,5.45312l-.0503-1.42773h1.48l-.0498,1.42773-.21,3.79h-.96Z"/>
    </g>
  </g>
</svg>
