<svg xmlns="http://www.w3.org/2000/svg" width="16" height="16" viewBox="0 0 16 16">
  <defs>
    <style>
      .cls-1 {
        fill: #3ba72d;
      }
    </style>
  </defs>
  <g id="레이어_2" data-name="레이어 2">
    <g id="Toast_Success">
      <g>
        <path class="cls-1" d="M8,16a8,8,0,1,1,8-8A8.00923,8.00923,0,0,1,8,16ZM8,.94118A7.05882,7.05882,0,1,0,15.05882,8,7.06654,7.06654,0,0,0,8,.94118Z"/>
        <path class="cls-1" d="M6.494,11.60754a.46974.46974,0,0,1-.34973-.15533L3.88557,8.943A.47084.47084,0,1,1,4.585,8.3125L6.48162,10.42l4.92279-5.85938a.47037.47037,0,1,1,.72058.60478l-5.27067,6.2739a.47074.47074,0,0,1-.352.1682Z"/>
      </g>
    </g>
  </g>
</svg>
